<svg preserveAspectRatio="none" overflow="visible" style="display: block;" width="16" height="16" viewBox="0 0 16 16" fill="none" xmlns="http://www.w3.org/2000/svg">
<g id="edit_24dp_E3E3E3_FILL1_wght700_GRAD0_opsz24 1">
<path id="Vector" d="M1.43359 14.5666V10.6666L10.2003 1.89993C10.3558 1.74438 10.5308 1.62771 10.7253 1.54993C10.9197 1.47216 11.1225 1.43327 11.3336 1.43327C11.5336 1.43327 11.7336 1.47216 11.9336 1.54993C12.1336 1.62771 12.3169 1.74438 12.4836 1.89993L14.1169 3.49993C14.2725 3.65549 14.3891 3.83605 14.4669 4.0416C14.5447 4.24716 14.5836 4.45549 14.5836 4.6666C14.5836 4.87771 14.5447 5.08327 14.4669 5.28327C14.3891 5.48327 14.2725 5.66105 14.1169 5.8166L5.36693 14.5666H1.43359ZM11.3669 5.58327L12.3003 4.6666L11.3503 3.69993L10.4003 4.63327L11.3669 5.58327Z" fill="#5952FF"/>
</g>
</svg>
